<?xml version="1.0" encoding="UTF-8" standalone="no"?>
<svg width="200px" height="200px" viewBox="0 0 200 200" version="1.1" xmlns="http://www.w3.org/2000/svg" xmlns:xlink="http://www.w3.org/1999/xlink">
    <!-- Generator: Sketch 40.3 (33839) - http://www.bohemiancoding.com/sketch -->
    <title>58 - Settings</title>
    <desc>Created with Sketch.</desc>
    <defs></defs>
    <g id="Page-1" stroke="none" stroke-width="1" fill="none" fill-rule="evenodd">
        <g id="58---Settings" fill="#D0D0D2">
            <path d="M115.605469,155.227865 L126.894531,143.938802 C128.296441,142.536892 128.997396,140.876736 128.997396,138.958333 C128.997396,137.039931 128.296441,135.379774 126.894531,133.977865 L92.9166667,100 L126.894531,66.0221354 C128.296441,64.6202257 128.997396,62.9600694 128.997396,61.0416667 C128.997396,59.1232639 128.296441,57.4631076 126.894531,56.0611979 L115.605469,44.7721354 C114.203559,43.3702257 112.543403,42.6692708 110.625,42.6692708 C108.706597,42.6692708 107.046441,43.3702257 105.644531,44.7721354 L55.3971354,95.0195312 C53.9952257,96.421441 53.2942708,98.0815972 53.2942708,100 C53.2942708,101.918403 53.9952257,103.578559 55.3971354,104.980469 L105.644531,155.227865 C107.046441,156.629774 108.706597,157.330729 110.625,157.330729 C112.543403,157.330729 114.203559,156.629774 115.605469,155.227865 L115.605469,155.227865 Z M185,100 C185,115.421007 181.200087,129.643012 173.60026,142.666016 C166.000434,155.689019 155.689019,166.000434 142.666016,173.60026 C129.643012,181.200087 115.421007,185 100,185 C84.5789931,185 70.3569878,181.200087 57.3339844,173.60026 C44.3109809,166.000434 33.999566,155.689019 26.3997396,142.666016 C18.7999132,129.643012 15,115.421007 15,100 C15,84.5789931 18.7999132,70.3569878 26.3997396,57.3339844 C33.999566,44.3109809 44.3109809,33.999566 57.3339844,26.3997396 C70.3569878,18.7999132 84.5789931,15 100,15 C115.421007,15 129.643012,18.7999132 142.666016,26.3997396 C155.689019,33.999566 166.000434,44.3109809 173.60026,57.3339844 C181.200087,70.3569878 185,84.5789931 185,100 L185,100 Z" id="Shape"></path>
        </g>
    </g>
</svg>