<?xml version="1.0" encoding="UTF-8" standalone="no"?>
<svg width="200px" height="200px" viewBox="0 0 200 200" version="1.1" xmlns="http://www.w3.org/2000/svg" xmlns:xlink="http://www.w3.org/1999/xlink">
    <!-- Generator: Sketch 40.3 (33839) - http://www.bohemiancoding.com/sketch -->
    <title>58 - Settings</title>
    <desc>Created with Sketch.</desc>
    <defs></defs>
    <g id="Page-1" stroke="none" stroke-width="1" fill="none" fill-rule="evenodd">
        <g id="58---Settings" fill="#D0D0D2">
            <path d="M90.8138021,144.602865 L158.769531,76.6471354 C160.171441,75.2452257 160.872396,73.5850694 160.872396,71.6666667 C160.872396,69.7482639 160.171441,68.0881076 158.769531,66.6861979 L147.480469,55.3971354 C146.078559,53.9952257 144.418403,53.2942708 142.5,53.2942708 C140.581597,53.2942708 138.921441,53.9952257 137.519531,55.3971354 L85.8333333,107.083333 L62.4804688,83.7304688 C61.078559,82.328559 59.4184028,81.6276042 57.5,81.6276042 C55.5815972,81.6276042 53.921441,82.328559 52.5195312,83.7304688 L41.2304688,95.0195312 C39.828559,96.421441 39.1276042,98.0815972 39.1276042,100 C39.1276042,101.918403 39.828559,103.578559 41.2304688,104.980469 L80.8528646,144.602865 C82.2547743,146.004774 83.9149306,146.705729 85.8333333,146.705729 C87.7517361,146.705729 89.4118924,146.004774 90.8138021,144.602865 L90.8138021,144.602865 Z M185,46.875 L185,153.125 C185,161.905382 181.882595,169.412977 175.647786,175.647786 C169.412977,181.882595 161.905382,185 153.125,185 L46.875,185 C38.0946181,185 30.5870226,181.882595 24.3522135,175.647786 C18.1174045,169.412977 15,161.905382 15,153.125 L15,46.875 C15,38.0946181 18.1174045,30.5870226 24.3522135,24.3522135 C30.5870226,18.1174045 38.0946181,15 46.875,15 L153.125,15 C161.905382,15 169.412977,18.1174045 175.647786,24.3522135 C181.882595,30.5870226 185,38.0946181 185,46.875 L185,46.875 Z" id="Check"></path>
        </g>
    </g>
</svg>