<?xml version="1.0" encoding="UTF-8" standalone="no"?>
<svg width="200px" height="200px" viewBox="0 0 200 200" version="1.1" xmlns="http://www.w3.org/2000/svg" xmlns:xlink="http://www.w3.org/1999/xlink">
    <!-- Generator: Sketch 40.3 (33839) - http://www.bohemiancoding.com/sketch -->
    <title>58 - Settings</title>
    <desc>Created with Sketch.</desc>
    <defs></defs>
    <g id="Page-1" stroke="none" stroke-width="1" fill="none" fill-rule="evenodd">
        <g id="58---Settings" fill="#D0D0D2">
            <path d="M58.6067708,150.46875 C58.0164931,151.132812 57.2786458,151.022135 56.3932292,150.136719 C55.4340278,149.325087 55.2864583,148.624132 55.9505208,148.033854 C56.5407986,147.369792 57.2786458,147.480469 58.1640625,148.365885 C59.0494792,149.177517 59.1970486,149.878472 58.6067708,150.46875 L58.6067708,150.46875 Z M53.9583333,143.717448 C54.6223958,144.602865 54.6223958,145.303819 53.9583333,145.820312 C53.3680556,146.263021 52.7408854,146.004774 52.0768229,145.045573 C51.4127604,144.086372 51.4127604,143.422309 52.0768229,143.053385 C52.7408854,142.536892 53.3680556,142.758247 53.9583333,143.717448 L53.9583333,143.717448 Z M47.2070312,137.076823 C46.8381076,137.593316 46.3585069,137.667101 45.7682292,137.298177 C45.0303819,136.929253 44.7721354,136.486545 44.9934896,135.970052 C45.2148438,135.601128 45.6944444,135.527344 46.4322917,135.748698 C47.1701389,136.117622 47.4283854,136.56033 47.2070312,137.076823 L47.2070312,137.076823 Z M50.6380208,140.839844 C50.1953125,141.356337 49.6050347,141.24566 48.8671875,140.507812 C48.203125,139.696181 48.1293403,139.105903 48.6458333,138.736979 C49.0885417,138.294271 49.6788194,138.404948 50.4166667,139.06901 C51.0807292,139.880642 51.1545139,140.47092 50.6380208,140.839844 L50.6380208,140.839844 Z M64.9153646,153.235677 C64.6202257,154.121094 63.9192708,154.342448 62.8125,153.89974 C61.5581597,153.604601 61.078559,153.051215 61.3736979,152.239583 C61.6688368,151.427951 62.3697917,151.169705 63.4765625,151.464844 C64.6571181,151.833767 65.1367188,152.424045 64.9153646,153.235677 L64.9153646,153.235677 Z M71.8880208,153.789062 C71.8880208,154.600694 71.2977431,155.00651 70.1171875,155.00651 C68.8628472,155.15408 68.2356771,154.748264 68.2356771,153.789062 C68.2356771,152.977431 68.8259549,152.571615 70.0065104,152.571615 C71.2608507,152.424045 71.8880208,152.829861 71.8880208,153.789062 L71.8880208,153.789062 Z M78.3072917,152.682292 C78.4548611,153.420139 77.9383681,153.936632 76.7578125,154.231771 C75.5772569,154.52691 74.9131944,154.231771 74.765625,153.346354 C74.6180556,152.460937 75.1345486,151.907552 76.3151042,151.686198 C77.4956597,151.538628 78.1597222,151.87066 78.3072917,152.682292 L78.3072917,152.682292 Z M185,46.875 L185,153.125 C185,161.905382 181.882595,169.412977 175.647786,175.647786 C169.412977,181.882595 161.905382,185 153.125,185 L128.333333,185 C127.152778,185 126.248915,184.963108 125.621745,184.889323 C124.994575,184.815538 124.275174,184.631076 123.463542,184.335938 C122.65191,184.040799 122.061632,183.505859 121.692708,182.73112 C121.323785,181.95638 121.139323,180.94184 121.139323,179.6875 L121.139323,153.235677 C121.139323,146.078559 119.22092,140.839844 115.384115,137.519531 C119.589844,137.076823 123.371311,136.41276 126.728516,135.527344 C130.08572,134.641927 133.553602,133.203125 137.132161,131.210938 C140.71072,129.21875 143.699002,126.765408 146.097005,123.850911 C148.495009,120.936415 150.450304,117.062717 151.962891,112.229818 C153.475477,107.396918 154.231771,101.844618 154.231771,95.5729167 C154.231771,86.6449653 151.317274,79.0451389 145.488281,72.7734375 C148.218316,66.0590278 147.923177,58.5329861 144.602865,50.1953125 C142.536892,49.53125 139.548611,49.937066 135.638021,51.4127604 C131.727431,52.8884549 128.333333,54.5117188 125.455729,56.2825521 L121.25,58.9388021 C114.388021,57.0203993 107.304688,56.0611979 100,56.0611979 C92.6953125,56.0611979 85.6119792,57.0203993 78.75,58.9388021 C77.5694444,58.1271701 76.0015191,57.1310764 74.046224,55.9505208 C72.0909288,54.7699653 69.0104167,53.3496094 64.8046875,51.6894531 C60.5989583,50.0292969 57.4262153,49.53125 55.2864583,50.1953125 C52.0399306,58.5329861 51.781684,66.0590278 54.5117188,72.7734375 C48.6827257,79.0451389 45.7682292,86.6449653 45.7682292,95.5729167 C45.7682292,101.844618 46.5245226,107.378472 48.0371094,112.174479 C49.5496962,116.970486 51.4865451,120.844184 53.8476562,123.795573 C56.2087674,126.746962 59.1786024,129.21875 62.7571615,131.210938 C66.3357205,133.203125 69.8036024,134.641927 73.1608073,135.527344 C76.5180122,136.41276 80.2994792,137.076823 84.5052083,137.519531 C81.5538194,140.175781 79.7460938,143.975694 79.0820312,148.919271 C77.5325521,149.657118 75.8723958,150.210503 74.1015625,150.579427 C72.3307292,150.948351 70.2278646,151.132812 67.7929688,151.132812 C65.3580729,151.132812 62.9416233,150.339627 60.5436198,148.753255 C58.1456163,147.166884 56.0980903,144.861111 54.4010417,141.835938 C52.9991319,139.474826 51.2098524,137.556424 49.0332031,136.080729 C46.8565538,134.605035 45.0303819,133.719618 43.5546875,133.424479 L41.3411458,133.092448 C39.7916667,133.092448 38.7217882,133.258464 38.1315104,133.590495 C37.5412326,133.922526 37.3567708,134.346788 37.578125,134.863281 C37.7994792,135.379774 38.1315104,135.896267 38.5742188,136.41276 C39.0169271,136.929253 39.4965278,137.371962 40.0130208,137.740885 L40.7877604,138.294271 C42.4110243,139.032118 44.015842,140.434028 45.6022135,142.5 C47.1885851,144.565972 48.3506944,146.447483 49.0885417,148.144531 L50.1953125,150.690104 C51.1545139,153.493924 52.7777778,155.762804 55.0651042,157.496745 C57.3524306,159.230686 59.8242188,160.337457 62.4804688,160.817057 C65.1367188,161.296658 67.7007378,161.554905 70.172526,161.591797 C72.6443142,161.628689 74.6918403,161.499566 76.3151042,161.204427 L78.8606771,160.761719 C78.8606771,163.565538 78.8791233,167.365451 78.9160156,172.161458 C78.952908,176.957465 78.9713542,179.466146 78.9713542,179.6875 C78.9713542,181.310764 78.5655382,182.546658 77.7539062,183.395182 C76.9422743,184.243707 76.1306424,184.723307 75.3190104,184.833984 C74.5073785,184.944661 73.2899306,185 71.6666667,185 L46.875,185 C38.0946181,185 30.5870226,181.882595 24.3522135,175.647786 C18.1174045,169.412977 15,161.905382 15,153.125 L15,46.875 C15,38.0946181 18.1174045,30.5870226 24.3522135,24.3522135 C30.5870226,18.1174045 38.0946181,15 46.875,15 L153.125,15 C161.905382,15 169.412977,18.1174045 175.647786,24.3522135 C181.882595,30.5870226 185,38.0946181 185,46.875 L185,46.875 Z" id="GH"></path>
        </g>
    </g>
</svg>