<?xml version="1.0" encoding="UTF-8" standalone="no"?>
<svg width="200px" height="200px" viewBox="0 0 200 200" version="1.1" xmlns="http://www.w3.org/2000/svg" xmlns:xlink="http://www.w3.org/1999/xlink">
    <!-- Generator: Sketch 40.3 (33839) - http://www.bohemiancoding.com/sketch -->
    <title>58 - Settings</title>
    <desc>Created with Sketch.</desc>
    <defs></defs>
    <g id="Page-1" stroke="none" stroke-width="1" fill="none" fill-rule="evenodd">
        <g id="58---Settings" fill="#5CB85C">
            <path d="M172.926519,100.320718 C163.370096,85.4831144 151.393132,74.3863474 136.995627,67.0304168 C140.83077,73.5690218 142.748342,80.6420319 142.748342,88.2494473 C142.748342,99.8806195 138.61456,109.829987 130.346997,118.09755 C122.079434,126.365113 112.130067,130.498895 100.498895,130.498895 C88.8677223,130.498895 78.9183547,126.365113 70.6507918,118.09755 C62.3832288,109.829987 58.2494473,99.8806195 58.2494473,88.2494473 C58.2494473,80.6420319 60.1670189,73.5690218 64.0021622,67.0304168 C49.6046571,74.3863474 37.6276933,85.4831144 28.0712707,100.320718 C36.4331404,113.209314 46.9169133,123.473038 59.5225891,131.111889 C72.128265,138.75074 85.7870335,142.570165 100.498895,142.570165 C115.210756,142.570165 128.869524,138.75074 141.4752,131.111889 C154.080876,123.473038 164.564649,113.209314 172.926519,100.320718 L172.926519,100.320718 Z M105.025621,64.106906 C105.025621,62.849482 104.585523,61.7806715 103.705326,60.9004747 C102.825129,60.0202779 101.756319,59.5801795 100.498895,59.5801795 C92.6399944,59.5801795 85.8970581,62.3936657 80.2700856,68.0206383 C74.643113,73.6476108 71.8296268,80.3905471 71.8296268,88.2494473 C71.8296268,89.5068713 72.2697252,90.5756817 73.149922,91.4558786 C74.0301188,92.3360754 75.0989292,92.7761738 76.3563533,92.7761738 C77.6137773,92.7761738 78.6825877,92.3360754 79.5627845,91.4558786 C80.4429814,90.5756817 80.8830798,89.5068713 80.8830798,88.2494473 C80.8830798,82.842524 82.8006514,78.2214907 86.6357947,74.3863474 C90.470938,70.5512041 95.0919713,68.6336325 100.498895,68.6336325 C101.756319,68.6336325 102.825129,68.1935341 103.705326,67.3133373 C104.585523,66.4331404 105.025621,65.36433 105.025621,64.106906 L105.025621,64.106906 Z M184.997789,100.320718 C184.997789,102.458339 184.369077,104.627395 183.111653,106.827887 C174.309685,121.288264 162.474181,132.872282 147.605142,141.579944 C132.736103,150.287605 117.034021,154.641436 100.498895,154.641436 C83.9637686,154.641436 68.2616861,150.271887 53.392647,141.53279 C38.5236079,132.793693 26.6881042,121.225392 17.886136,106.827887 C16.628712,104.627395 16,102.458339 16,100.320718 C16,98.1830971 16.628712,96.0140407 17.886136,93.8135486 C26.6881042,79.4160435 38.5236079,67.8477425 53.392647,59.1086455 C68.2616861,50.3695485 83.9637686,46 100.498895,46 C117.034021,46 132.736103,50.3695485 147.605142,59.1086455 C162.474181,67.8477425 174.309685,79.4160435 183.111653,93.8135486 C184.369077,96.0140407 184.997789,98.1830971 184.997789,100.320718 L184.997789,100.320718 Z" id="Shape"></path>
        </g>
    </g>
</svg>