<svg id="_Interface_Build" data-name="– Interface Build" xmlns="http://www.w3.org/2000/svg" viewBox="0 0 71.31 34.09"><defs><style>.cls-1{fill:#d0d0d2;}</style></defs><title>v6-Updates-forCS</title><path class="cls-1" d="M0,33.64V.48H7V27.83H20.48v5.81Z"/><path class="cls-1" d="M33.16,33.64H26.24V.48h19V6.24H33.16v8.55H44.41v5.74H33.16Z"/><path class="cls-1" d="M71.31,24.43a8.6,8.6,0,0,1-3.23,7.08c-2.16,1.72-5.15,2.58-9,2.58a21.18,21.18,0,0,1-9.39-2V25.56a39.18,39.18,0,0,0,5.68,2.11,16.85,16.85,0,0,0,4.26.62,6,6,0,0,0,3.55-.89,3,3,0,0,0,1.24-2.63A2.88,2.88,0,0,0,63.87,23a6.07,6.07,0,0,0-1.6-1.46A41,41,0,0,0,58,19.33a20.48,20.48,0,0,1-4.57-2.75A10.37,10.37,0,0,1,51,13.52a8.7,8.7,0,0,1-.91-4.08,8.56,8.56,0,0,1,3-6.92C55.06.84,57.8,0,61.31,0a19.42,19.42,0,0,1,4.93.61,34.13,34.13,0,0,1,4.91,1.73L68.88,7.8a34.37,34.37,0,0,0-4.39-1.52,14.42,14.42,0,0,0-3.41-.43A4.53,4.53,0,0,0,58,6.78,3.08,3.08,0,0,0,57,9.21a3,3,0,0,0,.44,1.62,4.61,4.61,0,0,0,1.37,1.34,42.36,42.36,0,0,0,4.45,2.32c3.11,1.49,5.23,3,6.38,4.46A8.76,8.76,0,0,1,71.31,24.43Z"/></svg>