<?xml version="1.0" encoding="UTF-8" standalone="no"?>
<svg width="200px" height="200px" viewBox="0 0 200 200" version="1.1" xmlns="http://www.w3.org/2000/svg" xmlns:xlink="http://www.w3.org/1999/xlink">
    <!-- Generator: Sketch 40.3 (33839) - http://www.bohemiancoding.com/sketch -->
    <title>58 - Settings</title>
    <desc>Created with Sketch.</desc>
    <defs></defs>
    <g id="Page-1" stroke="none" stroke-width="1" fill="none" fill-rule="evenodd">
        <g id="58---Settings" fill="#D0D0D2">
            <g id="Laptop" transform="translate(15.000000, 43.000000)">
                <path d="M141.666667,99.5 C149.458333,99.5 155.833333,93.125 155.833333,85.3333333 L155.833333,14.5 C155.833333,6.70833333 149.458333,0.333333333 141.666667,0.333333333 L28.3333333,0.333333333 C20.5416667,0.333333333 14.1666667,6.70833333 14.1666667,14.5 L14.1666667,85.3333333 C14.1666667,93.125 20.5416667,99.5 28.3333333,99.5 L0,99.5 L0,113.666667 L170,113.666667 L170,99.5 L141.666667,99.5 L141.666667,99.5 Z M28.3333333,14.5 L141.666667,14.5 L141.666667,85.3333333 L28.3333333,85.3333333 L28.3333333,14.5 L28.3333333,14.5 Z" id="Shape"></path>
            </g>
        </g>
    </g>
</svg>