<?xml version="1.0" encoding="UTF-8" standalone="no"?>
<svg width="200px" height="200px" viewBox="0 0 200 200" version="1.1" xmlns="http://www.w3.org/2000/svg" xmlns:xlink="http://www.w3.org/1999/xlink">
    <!-- Generator: Sketch 40.3 (33839) - http://www.bohemiancoding.com/sketch -->
    <title>58 - Settings</title>
    <desc>Created with Sketch.</desc>
    <defs></defs>
    <g id="Page-1" stroke="none" stroke-width="1" fill="none" fill-rule="evenodd">
        <g id="58---Settings" fill="#D0D0D2">
            <g id="ic_more_vert_black_24px" transform="translate(79.000000, 15.000000)">
                <path d="M21.25,42.5 C32.9375,42.5 42.5,32.9375 42.5,21.25 C42.5,9.5625 32.9375,0 21.25,0 C9.5625,0 0,9.5625 0,21.25 C0,32.9375 9.5625,42.5 21.25,42.5 L21.25,42.5 Z M21.25,63.75 C9.5625,63.75 0,73.3125 0,85 C0,96.6875 9.5625,106.25 21.25,106.25 C32.9375,106.25 42.5,96.6875 42.5,85 C42.5,73.3125 32.9375,63.75 21.25,63.75 L21.25,63.75 Z M21.25,127.5 C9.5625,127.5 0,137.0625 0,148.75 C0,160.4375 9.5625,170 21.25,170 C32.9375,170 42.5,160.4375 42.5,148.75 C42.5,137.0625 32.9375,127.5 21.25,127.5 L21.25,127.5 Z" id="Shape"></path>
            </g>
        </g>
    </g>
</svg>