<svg id="Layer_1" data-name="Layer 1" xmlns="http://www.w3.org/2000/svg" viewBox="0 0 240.05 239.92"><defs><style>.cls-1{fill:#d0d0d2;}</style></defs><title>GK-Icons</title><path class="cls-1" d="M232.57,166.87c-6-2.72-12-5.27-18-7.9l-20-8.76c.2-.91.85-1,1.34-1.24,9.59-4.19,19.21-8.32,28.79-12.54,3.49-1.54,7.24-2.68,10.31-5,4-3,5.11-7.27,4.91-12.17-.24-6.1-2.83-10.5-8.44-13-9.74-4.27-19.54-8.4-29.25-12.73-2.58-1.15-5.34-2-7.86-3.75a12.91,12.91,0,0,1,1.28-.76c9.67-4.22,19.36-8.4,29-12.65,3.42-1.5,7.08-2.64,10.12-4.82,4.23-3,5.38-7.48,5.13-12.56-.3-5.88-2.77-10.22-8.19-12.61Q208.12,36.06,184.45,25.8,157.6,14.1,130.74,2.44C125.1,0,119.35-1,113.3,1.2c-4.16,1.48-8.13,3.34-12.16,5.1C90,11.16,78.88,15.94,67.76,20.78Q53.36,27.05,39,33.38L7.92,47C2.12,49.48-.16,54.47,0,60.22S2.68,71,8.52,73.52Q23.16,79.84,37.8,86.2c2.67,1.16,5.31,2.42,8.41,3.84-1.35.63-2.16,1-3,1.4-11.72,5.15-23.42,10.33-35.16,15.42-5.73,2.48-8,7.27-8,13,.06,6.26,2.71,11.32,9,14C21.3,139,33.46,144.37,45.85,149.75a4.8,4.8,0,0,1-2.5,1.66C31.56,156.58,19.78,161.78,8,166.91c-5.73,2.5-8,7.33-7.87,13C.2,186.1,2.76,191.17,9,193.74c6,2.49,11.92,5.1,17.85,7.69q20.34,8.88,40.65,17.79c13.93,6.08,27.91,12.07,41.81,18.21,6.57,2.9,13.17,3.47,19.8.65,10.78-4.59,21.48-9.37,32.22-14.06s21.32-9.31,32-14c12.49-5.44,25-10.91,37.5-16.27,5.54-2.37,8.85-6.17,9.24-12.39C240.36,175.81,238.21,169.44,232.57,166.87ZM36.39,61a13.48,13.48,0,0,1-1.65-1c3.77-2.38,7.72-3.67,11.47-5.33C57.3,49.7,68.46,45,79.58,40.11c11.88-5.17,23.93-10,35.56-15.7,5.11-2.5,8.65-.19,12.69,1.54q20.49,8.81,40.93,17.71,17.48,7.59,34.94,15.23c.52.22,1,.56,1.93,1.09-4.35,2.54-8.67,4.05-12.81,5.9-9.85,4.42-19.79,8.64-29.69,13s-19.77,8.69-29.66,13c-3.5,1.53-7,3-10.51,4.57a4.47,4.47,0,0,1-4,.18c-9.28-4.08-18.6-8-27.91-12Q75.4,77.82,59.74,71C52,67.67,44.17,64.34,36.39,61Zm-.08,60a13.77,13.77,0,0,1-1.46-.86c2.13-1.94,4.74-2.57,7.1-3.62,10.18-4.51,20.42-8.86,30.58-13.4a5.13,5.13,0,0,1,4.5.22c10.88,4.76,21.79,9.44,32.62,14.33,8,3.61,15.58,2.39,23.26-1.11,10.12-4.62,20.41-8.89,30.57-13.41a4.68,4.68,0,0,1,4.05,0q18.25,8,36.52,16a16.12,16.12,0,0,1,1.7,1.1c-5.77,2.56-11,4.92-16.23,7.21-10.12,4.43-20.26,8.8-30.38,13.22q-18.37,8-36.73,16.12a3.77,3.77,0,0,1-3.31,0c-9.36-4.09-18.75-8.09-28.13-12.14q-15.56-6.72-31.09-13.46C52,127.68,44.16,124.33,36.31,121Zm161.08,62.92c-11.68,5.2-23.42,10.29-35.13,15.41l-39.95,17.46a3.54,3.54,0,0,1-3.08,0c-9.36-4.09-18.76-8.09-28.13-12.14Q75.3,197.8,59.54,191q-11.67-5-23.33-10.07A1.71,1.71,0,0,1,35,179.58c5.13-2.28,10.2-4.56,15.29-6.78,7.38-3.23,14.81-6.34,22.14-9.67a5.07,5.07,0,0,1,4.5.1c10.88,4.76,21.8,9.43,32.62,14.33,8.09,3.67,15.73,2.46,23.49-1.1,10.12-4.62,20.4-8.89,30.57-13.4a4.39,4.39,0,0,1,3.81,0q18.39,8,36.75,16.07a10.49,10.49,0,0,1,1.26.77C203,181.94,200.05,182.69,197.39,183.87Z"/></svg>