<svg id="Layer_1" data-name="Layer 1" xmlns="http://www.w3.org/2000/svg" viewBox="0 0 180.01 210.06"><defs><style>.cls-1{fill:#d0d0d2;}</style></defs><title>GK-Icons</title><path class="cls-1" d="M102,43.55V158.47c0,4.79-1.79,6.57-6.62,6.59-3.92,0-7.83,0-11.75,0A5.29,5.29,0,0,1,78,159.7c-.23-3.73-.46-7.47-.46-11.2q-.06-50.86,0-101.73V43.56c-.84.7-1.41,1.1-1.89,1.59Q63.06,58,50.49,70.85C44.91,76.57,39.37,82.33,33.78,88c-2.69,2.75-5.82,2.79-8.48.06-3-3-6-6-8.7-9.28-2.48-2.91-2.17-5.38.56-8.11Q51.26,36.56,85.35,2.45c3.24-3.24,6.53-3.27,9.74-.06Q126.38,33.68,157.63,65c2.05,2.06,4,4.23,5.94,6.39a5.83,5.83,0,0,1,0,7.75c-3.08,3.14-6.25,6.23-9.58,9.09s-5.4,2.47-8.27-.6c-2.33-2.49-4.82-4.84-7.21-7.29-7.45-7.61-14.92-15.21-22.33-22.86-4.57-4.71-9-9.5-13.57-14.25Z"/><path class="cls-1" d="M89.9,210.06H7.17c-5.3,0-7.16-1.88-7.17-7.23q0-5.25,0-10.49c0-4.36,1.91-6.42,6.25-6.75.66-.05,1.33,0,2,0h164c5.94,0,7.78,1.83,7.78,7.72,0,3.41,0,6.83,0,10.25,0,4.43-2.12,6.52-6.62,6.52Z"/></svg>