<svg id="Layer_1" data-name="Layer 1" xmlns="http://www.w3.org/2000/svg" viewBox="0 0 240.32 240.07"><defs><style>.cls-1{fill:#d0d0d2;}</style></defs><title>GK-Icons</title><path class="cls-1" d="M234,106.31q-50-50.06-100-100a19.4,19.4,0,0,0-8.43-5.12,34.43,34.43,0,0,0-9.35-1C100.63,0,85,.06,69.46.06,53.72.06,38-.12,22.22.14,13.62.28,7.08,4.46,2.82,12.06.68,15.9.2,20.11.13,24.34,0,33.58,0,42.83.11,52.08.35,75-.54,97.88.59,120.77a18.91,18.91,0,0,0,5.68,12.68Q56.6,183.88,107,234.21a17.54,17.54,0,0,0,4.4,3.25c8.71,4.47,19.57,3.47,28.06-5.05q46.69-46.82,93.47-93.53a29.24,29.24,0,0,0,4-4.74C242.4,125.68,241.11,113.4,234,106.31ZM216,123.51q-46.11,46-92.08,92.08c-1.54,1.54-2.32,1.32-3.73-.09Q72.49,167.71,24.73,120A5.32,5.32,0,0,1,23,115.88c0-15.08,0-30.16,0-45.24S23.09,40.48,23,25.4c0-2.36.72-2.89,3-2.89q45,.1,90,0a5.34,5.34,0,0,1,4.16,1.72q47.85,47.94,95.8,95.79C217.18,121.34,217.45,122,216,123.51Z"/><path class="cls-1" d="M67.72,45.08c-12.46.25-22.38,9.34-22.44,22.22S55.06,90,67.4,90.06c12.88-.07,22.9-9.37,23-22.23S80.53,44.81,67.72,45.08Z"/></svg>