<svg id="Layer_1" data-name="Layer 1" xmlns="http://www.w3.org/2000/svg" viewBox="0 0 300.66 240.14"><defs><style>.cls-1{fill:#d0d0d2;}</style></defs><title>GK-Icons</title><path class="cls-1" d="M300.52,173.82c-.07-6.1-2.91-8.71-9-8.71H273.78c-3.23,0-3.23,0-3.23-3.26q0-64.48,0-129A44.61,44.61,0,0,0,269.9,25c-2.53-13.86-15.43-25-30.52-25C180,.26,120.58.11,61.18.1a33,33,0,0,0-6,.48C46.49,2.17,40,7,35,14.19c-3.79,5.45-4.85,11.61-4.86,18q-.11,65,0,130c0,2.4-.64,3.11-3,3-6.32-.16-12.66,0-19,0a8.92,8.92,0,0,0-2.93.42c-4.19,1.41-5,4.86-5,8.56-.13,6.66-.25,13.34,0,20a55.93,55.93,0,0,0,2,14.23,45.91,45.91,0,0,0,13.73,21A40,40,0,0,0,43.09,240c35.65.21,71.31.08,107,.08v0q52.23,0,104.47,0a47.87,47.87,0,0,0,11.59-1.32,44.35,44.35,0,0,0,23.21-14.15A41.67,41.67,0,0,0,300,201.25C301,192.15,300.62,183,300.52,173.82ZM53.05,31.23c0-6,2.61-8.62,8.68-8.62q88.47,0,177,0c5.58,0,9,2.68,9,8.88-.17,43.48-.09,87-.09,130.46,0,3.18,0,3.19-3.29,3.19H56.36c-3.31,0-3.31,0-3.31-3.17Zm221,176.2a22.54,22.54,0,0,1-19.47,10.17h-104q-52,0-104,0c-11.47,0-20.4-6.75-23.13-17.14-1-3.82-.29-7.78-.42-11.68,0-.85.49-1.16,1.27-1.17h2q39,0,78,0c2,0,3.48.34,4.82,2.19,2.69,3.72,6.54,5.38,11.23,5.36q29.87-.09,59.74,0A13.8,13.8,0,0,0,192,189.07a3.19,3.19,0,0,1,2.91-1.48q40.25,0,80.49,0c.84,0,2.06-.34,2.11,1.06C277.76,195.18,278.09,201.69,274.06,207.43Z"/></svg>