<svg id="Layer_1" data-name="Layer 1" xmlns="http://www.w3.org/2000/svg" viewBox="0 0 270.55 240.12"><defs><style>.cls-1{fill:#d0d0d2;}</style></defs><title>GK-Icons</title><path class="cls-1" d="M270.48,168.11a38.65,38.65,0,0,0-.88-7.63c-1-4.94-4.1-8.68-7.29-12.29-8.46-9.58-17-19.08-25.57-28.61L215.64,96c-2.14-2.4-4.21-2.92-5.94-1.25-3.89,3.77-7.69,7.64-11.51,11.48-1.34,1.35-1.34,2.72-.05,4.17q10,11.25,20,22.54c2.72,3.08,5.39,6.2,8.38,9.64h-2.9c-14.66,0-29.33,0-44-.05a3.26,3.26,0,0,0-3.42,2.14c-4.25,8.67-8.64,17.28-12.89,25.95a3.09,3.09,0,0,1-3.25,2q-24.74-.1-49.49,0a3.61,3.61,0,0,1-3.78-2.42c-4.12-8.46-8.43-16.83-12.55-25.29a3.62,3.62,0,0,0-3.8-2.39c-14.49.09-29,.05-43.49.05H44c9.48-10.77,18.58-21.12,27.7-31.44,2.3-2.61,2.33-3.24-.2-5.78q-4.57-4.61-9.19-9.19c-3.22-3.23-5.19-3.06-8.07.51-1.93,2.38-4,4.67-6,7-4.89,5.43-9.83,10.82-14.71,16.26C25.22,129.19,17,138.57,8.6,147.75,3.66,153.13.05,159.07.11,166.54c.15,17.65-.54,35.3.39,52.94.59,11.23,10.56,20.64,21.88,20.64q112.86-.09,225.72,0a20.46,20.46,0,0,0,5.87-.93c10.61-3.2,16.45-11.51,16.52-23.07Q270.63,192.1,270.48,168.11Zm-25.69,49.52q-54.75-.09-109.5,0H26.3c-3.28,0-3.29,0-3.29-3.2,0-15.5,0-31,0-46.5,0-2.12.43-2.87,2.73-2.86q25.5.15,51,0a3.27,3.27,0,0,1,3.43,2.15c4.17,8.53,8.51,17,12.67,25.51a3.63,3.63,0,0,0,3.78,2.43q38.86-.12,77.74,0a3.42,3.42,0,0,0,3.6-2.25c4.2-8.61,8.56-17.13,12.77-25.74a3.25,3.25,0,0,1,3.44-2.09q25.37.1,50.74,0c2.29,0,2.75.72,2.74,2.84q-.12,23.51,0,47C247.63,217.15,246.94,217.64,244.79,217.63Z"/><path class="cls-1" d="M120.06,41.07v-33c0-6,2-8,7.86-8,5,0,10,.23,15-.07s7.58,2.46,7.6,7.57c0,2.25,0,4.5,0,6.75,0,20.17,0,40.33,0,60.49,0,2.21.6,2.82,2.8,2.8,9.42-.12,18.83,0,28.25-.1a5.18,5.18,0,0,1,5.3,3.32,5.41,5.41,0,0,1-1.22,6.39Q162.9,110,140.14,132.64c-3,3-6,3.42-9.44-.07-15-15.2-30.11-30.21-45.19-45.3-3.27-3.27-2.94-7,.7-9.16a5.15,5.15,0,0,1,2.88-.53c9.5,0,19-.06,28.49,0,2,0,2.54-.61,2.52-2.56C120,63.73,120.06,52.4,120.06,41.07Z"/></svg>