<svg id="Layer_1" data-name="Layer 1" xmlns="http://www.w3.org/2000/svg" viewBox="0 0 232.56 232.31"><defs><style>.cls-1{fill:#d0d0d2;}</style></defs><title>GK-Icons</title><path class="cls-1" d="M232.55,46.94q0,16.26,0,32.5c0,4.63-2.06,6.7-6.69,6.7q-32.5,0-65,0c-2.75,0-5-.73-6.11-3.35s-.24-4.95,1.78-6.95c7.63-7.57,15.16-15.25,22.86-22.75,1.72-1.67,1.55-2.59-.11-4.07-13.38-11.93-28.71-20-46.38-23.33a81.22,81.22,0,0,0-16.57-1.44,91.36,91.36,0,0,0-33.95,6.66A93.68,93.68,0,0,0,48.64,54.36,90.59,90.59,0,0,0,26.18,98.18a83.77,83.77,0,0,0-1.46,26.54C26.07,136,29,147,34.43,157.18A99.41,99.41,0,0,0,53.69,183a94,94,0,0,0,18.49,13.45,85.32,85.32,0,0,0,24.08,9.28,113.17,113.17,0,0,0,16.75,2c12,.79,23.44-1.51,34.61-5.43a83.62,83.62,0,0,0,28.13-16.63c3.43-3.06,7.07-3.05,10.31.18,2.72,2.7,5.44,5.39,8.12,8.14s2.55,5.81-.13,8.33a109.66,109.66,0,0,1-22.23,15.89,116.9,116.9,0,0,1-33.37,12.07,91.19,91.19,0,0,1-14.78,1.86c-5,.18-9.94.19-14.89-.09a111.87,111.87,0,0,1-35-7.82,116.28,116.28,0,0,1-23.22-12.52A118,118,0,0,1,16.8,176.21a108.16,108.16,0,0,1-15.3-41.5A115.52,115.52,0,0,1,9,71.55,119.09,119.09,0,0,1,39.25,29.31,114.73,114.73,0,0,1,61.18,13.82,112.08,112.08,0,0,1,94.07,1.94,81.62,81.62,0,0,1,108.6.16c4.38,0,8.75-.28,13.15-.07a117.14,117.14,0,0,1,33.77,6.69,118.42,118.42,0,0,1,24.73,12.31A81.39,81.39,0,0,1,196,32c1.78,1.93,2.83,1.68,4.56-.08,7.21-7.4,14.62-14.6,21.84-22a5.57,5.57,0,0,1,6.71-1.47c2.67,1.05,3.41,3.12,3.41,5.76C232.53,25.11,232.55,36,232.55,46.94Z"/></svg>