<svg id="Layer_1" data-name="Layer 1" xmlns="http://www.w3.org/2000/svg" viewBox="0 0 270.54 240.17"><defs><style>.cls-1{fill:#d0d0d2;}</style></defs><title>GK-Icons</title><path class="cls-1" d="M270.47,167.86c0-6-1.37-11.74-5.43-16.44s-8.49-9.56-12.77-14.32c-4.77-5.32-9.57-10.61-14.34-15.92Q227,109,216.11,96.91c-4.4-4.87-10-6.9-16.48-6.84-7.58.07-15.17,0-22.75,0-2.84,0-4.28,1.38-4.31,4.23q-.07,7,0,14c0,2.88,1.45,4.26,4.29,4.26,7.09,0,14.17.07,21.25,0a4.82,4.82,0,0,1,4,1.94c5.54,6.41,11.13,12.77,16.69,19.16,2.47,2.85,4.92,5.72,7.69,8.94h-2.89c-14.67,0-29.33,0-44,0a3.25,3.25,0,0,0-3.42,2.12c-4.25,8.67-8.64,17.28-12.9,26a3.07,3.07,0,0,1-3.24,2q-24.87-.09-49.74,0a3.27,3.27,0,0,1-3.41-2.17c-4.14-8.46-8.45-16.83-12.56-25.29a3.94,3.94,0,0,0-4.16-2.63c-11.16.12-22.33.05-33.49.05H44.52l-.63-.94a28.11,28.11,0,0,0,3.68-3q10.86-12.18,21.57-24.48a4.64,4.64,0,0,1,3.93-1.64c6.83.08,13.66,0,20.5,0,3,0,4.4-1.36,4.42-4.38q.06-6.87,0-13.75c0-3-1.42-4.36-4.44-4.36h-23a20.94,20.94,0,0,0-15.87,6.59c-2.11,2.23-4.18,4.51-6.25,6.78-5,5.47-10,10.94-14.89,16.44-8.32,9.27-16.47,18.71-24.95,27.82C2.86,153.87-.1,160.8,0,169.27c.18,15.33,0,30.66.09,46a33.24,33.24,0,0,0,.77,7.39c2.54,10.75,11.91,17.54,23,17.52q111.36-.25,222.72,0c13.43,0,23.86-9.26,23.92-23.76Q270.58,192.11,270.47,167.86Zm-25.79,49.77q-54.74-.1-109.49,0H26.2c-3.19,0-3.2,0-3.2-3.29,0-15.5.05-31-.05-46.5,0-2.26.67-2.76,2.83-2.75q25.36.12,50.75,0a3.44,3.44,0,0,1,3.63,2.22C84.37,175.88,88.74,184.4,93,193a3.29,3.29,0,0,0,3.46,2.11q39-.08,78,0a3.27,3.27,0,0,0,3.43-2.12c4.25-8.67,8.64-17.28,12.89-25.95a3.08,3.08,0,0,1,3.23-2q25.5.11,51,0c2.1,0,2.66.62,2.65,2.68q-.12,23.49,0,47C247.62,217,247,217.64,244.68,217.63Z"/><path class="cls-1" d="M150.5,94.05q0,16.62,0,33.24c0,5.76-2.05,7.79-7.8,7.79-5.08,0-10.18-.21-15.24.07-4.4.25-7.18-2.16-7.4-7,0-.67,0-1.34,0-2V60.9c0-3.3,0-3.3-3.19-3.3-9.24,0-18.49-.07-27.74,0a5.21,5.21,0,0,1-5.34-3.26A5.37,5.37,0,0,1,84.93,48q23-23,46-45.95c2.83-2.81,6.07-2.67,9,.21,4.92,4.86,9.78,9.78,14.7,14.64q15,14.84,30.07,29.63c1.9,1.87,3.22,3.94,2.41,6.84s-2.35,4.23-5.29,4.24c-9.5,0-19,.07-28.5,0-2.16,0-2.85.5-2.83,2.76C150.57,71.56,150.5,82.8,150.5,94.05Z"/></svg>