<svg id="Layer_1" data-name="Layer 1" xmlns="http://www.w3.org/2000/svg" viewBox="0 0 232.46 232.47"><defs><style>.cls-1{fill:#d0d0d2;}</style></defs><title>GK-Icons</title><path class="cls-1" d="M39.17,86.18H6.68C2,86.18,0,84.13,0,79.46v-65c0-3.45.91-4.94,3.42-6C6.15,7.34,8.23,8,10.3,10.14,17.57,17.6,25,24.88,32.33,32.3c1.43,1.45,2.33,1.54,3.83.05C52.58,16,72.5,6.32,95,1.86a113,113,0,0,1,18-1.79,112.93,112.93,0,0,1,41.28,6.2A116.12,116.12,0,0,1,188.52,25.4a118.43,118.43,0,0,1,28.13,32.39A110,110,0,0,1,230,92a106.81,106.81,0,0,1,2.49,22.94c-.17,14.77-1.94,29.28-7.51,43.12a118.78,118.78,0,0,1-19.58,32.51,117.43,117.43,0,0,1-30.27,25.69,114.19,114.19,0,0,1-42.95,15.06,130.39,130.39,0,0,1-15.84,1.15A105.38,105.38,0,0,1,97.51,231,119.29,119.29,0,0,1,64.68,220.4,103,103,0,0,1,42.61,206c-1.44-1.25-2.94-2.45-4.29-3.79-2.48-2.46-2.44-5.6,0-8.16,2.8-2.86,5.63-5.68,8.48-8.49a6.53,6.53,0,0,1,9.38-.3,87.88,87.88,0,0,0,45.54,21.45c4.35.56,8.62,1.61,13.07,1.48,13.64-.4,26.95-2.48,39.35-8.44a97.58,97.58,0,0,0,21.12-13.57,95.55,95.55,0,0,0,22.44-28.32,85.9,85.9,0,0,0,9.68-31.18c2.25-19.91-1.4-38.82-11.57-56.1a92.17,92.17,0,0,0-49-40.84,87.69,87.69,0,0,0-27.75-5.17,90.28,90.28,0,0,0-33.66,5.07A91.71,91.71,0,0,0,56,46.91c-1.5,1.31-4,2.35-4.1,4.1-.12,2,2.43,3.13,3.86,4.59q9.84,10,19.8,19.79c2.18,2.15,3.61,4.43,2.27,7.49-1.25,2.87-3.75,3.36-6.62,3.34C60.5,86.14,49.84,86.18,39.17,86.18Z"/></svg>