<svg id="Layer_1" data-name="Layer 1" xmlns="http://www.w3.org/2000/svg" viewBox="0 0 341 209.94"><defs><style>.cls-1{fill:#d8d8d8;}.cls-2{fill:#d0d0d2;}</style></defs><title>GK-Icons</title><path id="Triangle" class="cls-1" d="M289.63,143.11l49.79-51.25a5.56,5.56,0,0,0-4-9.43H233.18a5.56,5.56,0,0,0-4,9.43L279,143.11A7.41,7.41,0,0,0,289.63,143.11Z"/><path class="cls-2" d="M102.61,121.45q7.42-7.56,14.84-15.11,13.72-14,27.44-28c4.23-4.32,7.07-4.39,11.36.07,2.64,2.75,5.21,5.58,7.59,8.56,1.84,2.3,1.47,5-.65,7.11-3.15,3.2-6.35,6.37-9.53,9.55q-28.89,28.89-57.8,57.77A19.74,19.74,0,0,1,93,163.77c-2.67,1.84-4.62,1.69-6.9-.57-5-5-10-10-15-15Q44.32,121.4,17.51,94.67c-2.75-2.73-3.5-7,0-10,2.7-2.34,5.08-5,7.64-7.56,2.94-2.87,6-2.88,9,.08q13,13.25,26,26.59c4.67,4.82,9.15,9.81,13.78,14.66a39,39,0,0,0,3.71,3v-2.93q0-54.73,0-109.46A24.57,24.57,0,0,1,78,4.88c.51-3,2.19-4.83,5-4.87C88,0,93,.12,98,.46c2.58.18,4,2.12,4.11,4.74,0,.83,0,1.67,0,2.5l0,113.71Z"/><path class="cls-2" d="M89.62,209.93H6.38c-4.06,0-6.27-2.19-6.29-6.3,0-3.84.21-7.68-.07-11.5-.33-4.69,3-6.36,6.31-6.67a19.09,19.09,0,0,1,2,0h163c.33,0,.67,0,1,0,5.83.44,7.89,1.54,7.75,7.79-.09,4.07-.08,8.15-.47,12.18-.29,3-2.25,4.39-5.24,4.51-.91,0-1.83,0-2.75,0Z"/></svg>