<?xml version="1.0" encoding="UTF-8" standalone="no"?>
<svg width="200px" height="200px" viewBox="0 0 200 200" version="1.1" xmlns="http://www.w3.org/2000/svg" xmlns:xlink="http://www.w3.org/1999/xlink">
    <!-- Generator: Sketch 40.3 (33839) - http://www.bohemiancoding.com/sketch -->
    <title>58 - Settings</title>
    <desc>Created with Sketch.</desc>
    <defs></defs>
    <g id="Page-1" stroke="none" stroke-width="1" fill="none" fill-rule="evenodd">
        <g id="58---Settings" fill="#D0D0D2">
            <path d="M74.875,163.75 C74.875,160.798611 73.8420139,158.289931 71.7760417,156.223958 C69.7100694,154.157986 67.2013889,153.125 64.25,153.125 C61.2986111,153.125 58.7899306,154.157986 56.7239583,156.223958 C54.6579861,158.289931 53.625,160.798611 53.625,163.75 C53.625,166.701389 54.6579861,169.210069 56.7239583,171.276042 C58.7899306,173.342014 61.2986111,174.375 64.25,174.375 C67.2013889,174.375 69.7100694,173.342014 71.7760417,171.276042 C73.8420139,169.210069 74.875,166.701389 74.875,163.75 L74.875,163.75 Z M74.875,36.25 C74.875,33.2986111 73.8420139,30.7899306 71.7760417,28.7239583 C69.7100694,26.6579861 67.2013889,25.625 64.25,25.625 C61.2986111,25.625 58.7899306,26.6579861 56.7239583,28.7239583 C54.6579861,30.7899306 53.625,33.2986111 53.625,36.25 C53.625,39.2013889 54.6579861,41.7100694 56.7239583,43.7760417 C58.7899306,45.8420139 61.2986111,46.875 64.25,46.875 C67.2013889,46.875 69.7100694,45.8420139 71.7760417,43.7760417 C73.8420139,41.7100694 74.875,39.2013889 74.875,36.25 L74.875,36.25 Z M145.708333,50.4166667 C145.708333,47.4652778 144.675347,44.9565972 142.609375,42.890625 C140.543403,40.8246528 138.034722,39.7916667 135.083333,39.7916667 C132.131944,39.7916667 129.623264,40.8246528 127.557292,42.890625 C125.491319,44.9565972 124.458333,47.4652778 124.458333,50.4166667 C124.458333,53.3680556 125.491319,55.8767361 127.557292,57.9427083 C129.623264,60.0086806 132.131944,61.0416667 135.083333,61.0416667 C138.034722,61.0416667 140.543403,60.0086806 142.609375,57.9427083 C144.675347,55.8767361 145.708333,53.3680556 145.708333,50.4166667 L145.708333,50.4166667 Z M156.333333,50.4166667 C156.333333,54.2534722 155.374132,57.8135851 153.455729,61.0970052 C151.537326,64.3804253 148.954861,66.9444444 145.708333,68.7890625 C145.560764,89.9652778 137.22309,105.238715 120.695312,114.609375 C115.677951,117.413194 108.188802,120.401476 98.2278646,123.574219 C88.7834201,126.525608 82.5301649,129.144965 79.468099,131.432292 C76.406033,133.719618 74.875,137.408854 74.875,142.5 L74.875,145.377604 C78.1215278,147.222222 80.7039931,149.786241 82.6223958,153.069661 C84.5407986,156.353082 85.5,159.913194 85.5,163.75 C85.5,169.652778 83.4340278,174.670139 79.3020833,178.802083 C75.1701389,182.934028 70.1527778,185 64.25,185 C58.3472222,185 53.3298611,182.934028 49.1979167,178.802083 C45.0659722,174.670139 43,169.652778 43,163.75 C43,159.913194 43.9592014,156.353082 45.8776042,153.069661 C47.7960069,149.786241 50.3784722,147.222222 53.625,145.377604 L53.625,54.6223958 C50.3784722,52.7777778 47.7960069,50.2137587 45.8776042,46.9303385 C43.9592014,43.6469184 43,40.0868056 43,36.25 C43,30.3472222 45.0659722,25.3298611 49.1979167,21.1979167 C53.3298611,17.0659722 58.3472222,15 64.25,15 C70.1527778,15 75.1701389,17.0659722 79.3020833,21.1979167 C83.4340278,25.3298611 85.5,30.3472222 85.5,36.25 C85.5,40.0868056 84.5407986,43.6469184 82.6223958,46.9303385 C80.7039931,50.2137587 78.1215278,52.7777778 74.875,54.6223958 L74.875,109.628906 C78.859375,107.710503 84.5407986,105.607639 91.9192708,103.320312 C95.9774306,102.065972 99.2055122,100.977648 101.603516,100.055339 C104.001519,99.1330295 106.602431,97.9893663 109.40625,96.624349 C112.210069,95.2593316 114.386719,93.8020833 115.936198,92.2526042 C117.485677,90.703125 118.979818,88.8216146 120.41862,86.6080729 C121.857422,84.3945312 122.890408,81.8305122 123.517578,78.9160156 C124.144748,76.0015191 124.458333,72.6258681 124.458333,68.7890625 C121.211806,66.9444444 118.62934,64.3804253 116.710937,61.0970052 C114.792535,57.8135851 113.833333,54.2534722 113.833333,50.4166667 C113.833333,44.5138889 115.899306,39.4965278 120.03125,35.3645833 C124.163194,31.2326389 129.180556,29.1666667 135.083333,29.1666667 C140.986111,29.1666667 146.003472,31.2326389 150.135417,35.3645833 C154.267361,39.4965278 156.333333,44.5138889 156.333333,50.4166667 L156.333333,50.4166667 Z" id="PR" transform="translate(99.666667, 100.000000) scale(1, -1) translate(-99.666667, -100.000000) "></path>
        </g>
    </g>
</svg>