<?xml version="1.0" encoding="UTF-8" standalone="no"?>
<svg width="200px" height="200px" viewBox="0 0 200 200" version="1.1" xmlns="http://www.w3.org/2000/svg" xmlns:xlink="http://www.w3.org/1999/xlink">
    <!-- Generator: Sketch 40.3 (33839) - http://www.bohemiancoding.com/sketch -->
    <title>58 - Settings</title>
    <desc>Created with Sketch.</desc>
    <defs></defs>
    <g id="Page-1" stroke="none" stroke-width="1" fill="none" fill-rule="evenodd">
        <g id="58---Settings" fill="#D0D0D2">
            <g id="ic_group_work_black_24px" transform="translate(15.000000, 15.000000)">
                <path d="M85,0 C38.08,0 0,38.08 0,85 C0,131.92 38.08,170 85,170 C131.92,170 170,131.92 170,85 C170,38.08 131.92,0 85,0 L85,0 Z M51,131.75 C39.27,131.75 29.75,122.23 29.75,110.5 C29.75,98.77 39.27,89.25 51,89.25 C62.73,89.25 72.25,98.77 72.25,110.5 C72.25,122.23 62.73,131.75 51,131.75 L51,131.75 Z M63.75,51 C63.75,39.27 73.27,29.75 85,29.75 C96.73,29.75 106.25,39.27 106.25,51 C106.25,62.73 96.73,72.25 85,72.25 C73.27,72.25 63.75,62.73 63.75,51 L63.75,51 Z M119,131.75 C107.27,131.75 97.75,122.23 97.75,110.5 C97.75,98.77 107.27,89.25 119,89.25 C130.73,89.25 140.25,98.77 140.25,110.5 C140.25,122.23 130.73,131.75 119,131.75 L119,131.75 Z" id="Shape"></path>
            </g>
        </g>
    </g>
</svg>