<?xml version="1.0" encoding="UTF-8" standalone="no"?>
<svg width="200px" height="200px" viewBox="0 0 200 200" version="1.1" xmlns="http://www.w3.org/2000/svg" xmlns:xlink="http://www.w3.org/1999/xlink">
    <!-- Generator: Sketch 40.3 (33839) - http://www.bohemiancoding.com/sketch -->
    <title>58 - Settings</title>
    <desc>Created with Sketch.</desc>
    <defs></defs>
    <g id="Page-1" stroke="none" stroke-width="1" fill="none" fill-rule="evenodd">
        <g id="58---Settings" fill="#D0D0D2">
            <path d="M132.692308,86.9230769 C132.692308,74.3229167 128.214143,63.5446715 119.257813,54.5883413 C110.301482,45.6320112 99.5232372,41.1538462 86.9230769,41.1538462 C74.3229167,41.1538462 63.5446715,45.6320112 54.5883413,54.5883413 C45.6320112,63.5446715 41.1538462,74.3229167 41.1538462,86.9230769 C41.1538462,99.5232372 45.6320112,110.301482 54.5883413,119.257813 C63.5446715,128.214143 74.3229167,132.692308 86.9230769,132.692308 C99.5232372,132.692308 110.301482,128.214143 119.257813,119.257813 C128.214143,110.301482 132.692308,99.5232372 132.692308,86.9230769 L132.692308,86.9230769 Z M185,171.923077 C185,175.464744 183.705929,178.529647 181.117788,181.117788 C178.529647,183.705929 175.464744,185 171.923077,185 C168.245192,185 165.180288,183.705929 162.728365,181.117788 L127.686298,146.177885 C115.494792,154.623397 101.907051,158.846154 86.9230769,158.846154 C77.1834936,158.846154 67.8695913,156.95613 58.9813702,153.176082 C50.093149,149.396034 42.4308894,144.287861 35.9945913,137.851562 C29.5582933,131.415264 24.4501202,123.753005 20.6700721,114.864784 C16.890024,105.976562 15,96.6626603 15,86.9230769 C15,77.1834936 16.890024,67.8695913 20.6700721,58.9813702 C24.4501202,50.093149 29.5582933,42.4308894 35.9945913,35.9945913 C42.4308894,29.5582933 50.093149,24.4501202 58.9813702,20.6700721 C67.8695913,16.890024 77.1834936,15 86.9230769,15 C96.6626603,15 105.976562,16.890024 114.864784,20.6700721 C123.753005,24.4501202 131.415264,29.5582933 137.851562,35.9945913 C144.287861,42.4308894 149.396034,50.093149 153.176082,58.9813702 C156.95613,67.8695913 158.846154,77.1834936 158.846154,86.9230769 C158.846154,101.907051 154.623397,115.494792 146.177885,127.686298 L181.219952,162.728365 C183.739984,165.248397 185,168.313301 185,171.923077 L185,171.923077 Z" id="Shape"></path>
        </g>
    </g>
</svg>