<?xml version="1.0" encoding="UTF-8" standalone="no"?>
<svg width="200px" height="200px" viewBox="0 0 200 200" version="1.1" xmlns="http://www.w3.org/2000/svg" xmlns:xlink="http://www.w3.org/1999/xlink">
    <!-- Generator: Sketch 40.3 (33839) - http://www.bohemiancoding.com/sketch -->
    <title>58 - Settings</title>
    <desc>Created with Sketch.</desc>
    <defs></defs>
    <g id="Page-1" stroke="none" stroke-width="1" fill="none" fill-rule="evenodd">
        <g id="58---Settings" fill="#DE9B43">
            <path d="M128.666667,100.5 C128.666667,108.275174 125.916016,114.913411 120.414714,120.414714 C114.913411,125.916016 108.275174,128.666667 100.5,128.666667 C92.7248264,128.666667 86.0865885,125.916016 80.5852865,120.414714 C75.0839844,114.913411 72.3333333,108.275174 72.3333333,100.5 C72.3333333,92.7248264 75.0839844,86.0865885 80.5852865,80.5852865 C86.0865885,75.0839844 92.7248264,72.3333333 100.5,72.3333333 C108.275174,72.3333333 114.913411,75.0839844 120.414714,80.5852865 C125.916016,86.0865885 128.666667,92.7248264 128.666667,100.5 L128.666667,100.5 Z M100.5,40.6458333 C89.6440972,40.6458333 79.6317274,43.3231337 70.4628906,48.6777344 C61.2940538,54.0323351 54.0323351,61.2940538 48.6777344,70.4628906 C43.3231337,79.6317274 40.6458333,89.6440972 40.6458333,100.5 C40.6458333,111.355903 43.3231337,121.368273 48.6777344,130.537109 C54.0323351,139.705946 61.2940538,146.967665 70.4628906,152.322266 C79.6317274,157.676866 89.6440972,160.354167 100.5,160.354167 C111.355903,160.354167 121.368273,157.676866 130.537109,152.322266 C139.705946,146.967665 146.967665,139.705946 152.322266,130.537109 C157.676866,121.368273 160.354167,111.355903 160.354167,100.5 C160.354167,89.6440972 157.676866,79.6317274 152.322266,70.4628906 C146.967665,61.2940538 139.705946,54.0323351 130.537109,48.6777344 C121.368273,43.3231337 111.355903,40.6458333 100.5,40.6458333 L100.5,40.6458333 Z M185,100.5 C185,115.830295 181.222439,129.968641 173.667318,142.915039 C166.112196,155.861437 155.861437,166.112196 142.915039,173.667318 C129.968641,181.222439 115.830295,185 100.5,185 C85.1697049,185 71.0313585,181.222439 58.0849609,173.667318 C45.1385634,166.112196 34.8878038,155.861437 27.3326823,142.915039 C19.7775608,129.968641 16,115.830295 16,100.5 C16,85.1697049 19.7775608,71.0313585 27.3326823,58.0849609 C34.8878038,45.1385634 45.1385634,34.8878038 58.0849609,27.3326823 C71.0313585,19.7775608 85.1697049,16 100.5,16 C115.830295,16 129.968641,19.7775608 142.915039,27.3326823 C155.861437,34.8878038 166.112196,45.1385634 173.667318,58.0849609 C181.222439,71.0313585 185,85.1697049 185,100.5 L185,100.5 Z" id="Shape"></path>
        </g>
    </g>
</svg>