<?xml version="1.0" encoding="utf-8"?>
<!-- Generator: Adobe Illustrator 24.0.1, SVG Export Plug-In . SVG Version: 6.00 Build 0)  -->
<svg version="1.1" id="Layer_1" xmlns="http://www.w3.org/2000/svg" xmlns:xlink="http://www.w3.org/1999/xlink" x="0px" y="0px"
	 viewBox="0 0 16 16" style="enable-background:new 0 0 16 16;" xml:space="preserve">
<style type="text/css">
	.st0{fill:#D0D0D2;}
	.st1{fill-rule:evenodd;clip-rule:evenodd;fill:#D0D0D2;}
</style>
<path class="st0" d="M14.2,8.7h-4v1.1h4V8.7z"/>
<path class="st0" d="M1.8,2.1h4v1.1h-4V2.1z"/>
<path class="st1" d="M0.4,16h15.1c0.2,0,0.3-0.2,0.3-0.3v-0.6c0-0.2-0.1-0.3-0.3-0.3h-2.7v-2h1.9c0.7,0,1.2-0.6,1.2-1.2V7.8
	c0-0.7-0.5-1.2-1.2-1.2h-2.6H9.7C9,6.6,8.4,7.1,8.4,7.8v3.7c0,0.7,0.6,1.2,1.2,1.2h1.9v2H4.4V6.2h1.9c0.7,0,1.2-0.6,1.2-1.2V1.2
	C7.6,0.5,7,0,6.3,0H1.2C0.6,0,0,0.5,0,1.2v3.7c0,0.7,0.6,1.2,1.2,1.2h1.9v8.6H0.4c-0.2,0-0.3,0.1-0.3,0.3v0.6
	C0.1,15.8,0.3,16,0.4,16z M9.7,11.5V7.8h5.1v3.7H9.7z M1.2,4.9V1.2h5.1v3.7H1.2z"/>
</svg>
