<?xml version="1.0" encoding="UTF-8" standalone="no"?>
<svg width="200px" height="200px" viewBox="0 0 200 200" version="1.1" xmlns="http://www.w3.org/2000/svg" xmlns:xlink="http://www.w3.org/1999/xlink">
    <!-- Generator: Sketch 40.3 (33839) - http://www.bohemiancoding.com/sketch -->
    <title>58 - Settings</title>
    <desc>Created with Sketch.</desc>
    <defs></defs>
    <g id="Page-1" stroke="none" stroke-width="1" fill="none" fill-rule="evenodd">
        <g id="58---Settings" fill="#D0D0D2">
            <g id="ic_local_offer_black_24px" transform="translate(15.000000, 15.000000)">
                <path d="M164.797242,81.4383803 L88.4768192,5.11795775 C85.4240023,2.06514085 81.1839789,0.199530516 76.5199531,0.199530516 L17.1596244,0.199530516 C7.83157277,0.199530516 0.199530516,7.83157277 0.199530516,17.1596244 L0.199530516,76.5199531 C0.199530516,81.1839789 2.06514085,85.4240023 5.20275822,88.5616197 L81.5231808,164.882042 C84.5759977,167.934859 88.8160211,169.800469 93.4800469,169.800469 C98.1440728,169.800469 102.384096,167.934859 105.436913,164.797242 L164.797242,105.436913 C167.934859,102.384096 169.800469,98.1440728 169.800469,93.4800469 C169.800469,88.8160211 167.850059,84.4911972 164.797242,81.4383803 L164.797242,81.4383803 Z M29.8796948,42.5997653 C22.8412559,42.5997653 17.1596244,36.9181338 17.1596244,29.8796948 C17.1596244,22.8412559 22.8412559,17.1596244 29.8796948,17.1596244 C36.9181338,17.1596244 42.5997653,22.8412559 42.5997653,29.8796948 C42.5997653,36.9181338 36.9181338,42.5997653 29.8796948,42.5997653 L29.8796948,42.5997653 Z" id="Shape"></path>
            </g>
        </g>
    </g>
</svg>