<?xml version="1.0" encoding="UTF-8" standalone="no"?>
<svg width="200px" height="200px" viewBox="0 0 200 200" version="1.1" xmlns="http://www.w3.org/2000/svg" xmlns:xlink="http://www.w3.org/1999/xlink">
    <!-- Generator: Sketch 40.3 (33839) - http://www.bohemiancoding.com/sketch -->
    <title>58 - Settings</title>
    <desc>Created with Sketch.</desc>
    <defs></defs>
    <g id="Page-1" stroke="none" stroke-width="1" fill="none" fill-rule="evenodd">
        <g id="58---Settings" fill="#D0D0D2">
            <path d="M68.3409598,135.740513 L75.6969866,122.44308 C70.2271205,118.482143 65.9518229,113.483817 62.8710938,107.448103 C59.7903646,101.412388 58.25,95.030878 58.25,88.3035714 C58.25,80.6960565 60.1675967,73.6229539 64.0027902,67.0842634 C49.6050967,74.4402902 37.6279762,85.5372024 28.0714286,100.375 C38.5710565,116.595982 51.9942336,128.384487 68.3409598,135.740513 L68.3409598,135.740513 Z M105.026786,64.1607143 C105.026786,62.9032738 104.586682,61.8344494 103.706473,60.9542411 C102.826265,60.0740327 101.75744,59.6339286 100.5,59.6339286 C92.640997,59.6339286 85.8979725,62.4474516 80.2709263,68.0744978 C74.6438802,73.7015439 71.8303571,80.4445685 71.8303571,88.3035714 C71.8303571,89.5610119 72.2704613,90.6298363 73.1506696,91.5100446 C74.030878,92.390253 75.0997024,92.8303571 76.3571429,92.8303571 C77.6145833,92.8303571 78.6834077,92.390253 79.5636161,91.5100446 C80.4438244,90.6298363 80.8839286,89.5610119 80.8839286,88.3035714 C80.8839286,82.8965774 82.8015253,78.2754836 86.6367187,74.4402902 C90.4719122,70.6050967 95.093006,68.6875 100.5,68.6875 C101.75744,68.6875 102.826265,68.2473958 103.706473,67.3671875 C104.586682,66.4869792 105.026786,65.4181548 105.026786,64.1607143 L105.026786,64.1607143 Z M139.260603,46.1478795 C139.260603,46.5879836 139.229167,46.8709077 139.166295,46.9966518 C132.564732,58.8165923 122.662388,76.609375 109.459263,100.375 C96.2561384,124.140625 86.3223586,141.964844 79.6579241,153.847656 L75.0368304,162.241071 C74.4081101,163.247024 73.5279018,163.75 72.3962054,163.75 C71.6417411,163.75 67.4293155,161.549479 59.7589286,157.148438 C58.7529762,156.519717 58.25,155.639509 58.25,154.507812 C58.25,153.753348 59.6331845,151.018415 62.3995536,146.303013 C53.4088542,142.216332 45.125465,136.777902 37.5493862,129.987723 C29.9733073,123.197545 23.4188988,115.495722 17.8861607,106.882254 C16.6287202,104.933222 16,102.764137 16,100.375 C16,97.9858631 16.6287202,95.8167783 17.8861607,93.8677455 C27.5055804,79.0928199 39.4512649,67.4300595 53.7232143,58.8794643 C67.9951637,50.328869 83.5874256,46.0535714 100.5,46.0535714 C106.09561,46.0535714 111.754092,46.5879836 117.475446,47.656808 L122.56808,38.5089286 C123.196801,37.5029762 124.077009,37 125.208705,37 C125.523065,37 126.088914,37.1886161 126.90625,37.5658482 C127.723586,37.9430804 128.698103,38.4303385 129.829799,39.0276228 C130.961496,39.624907 131.998884,40.2064732 132.941964,40.7723214 C133.885045,41.3381696 134.875279,41.9197359 135.912667,42.5170201 C136.950056,43.1143043 137.563058,43.4758185 137.751674,43.6015625 C138.757626,44.2302827 139.260603,45.0790551 139.260603,46.1478795 L139.260603,46.1478795 Z M142.75,88.3035714 C142.75,97.0427827 140.266555,105.011812 135.299665,112.210658 C130.332775,119.409505 123.762649,124.580729 115.589286,127.72433 L141.995536,80.3816964 C142.498512,83.2109375 142.75,85.8515625 142.75,88.3035714 L142.75,88.3035714 Z M185,100.375 C185,102.575521 184.37128,104.744606 183.113839,106.882254 C180.66183,110.906064 177.235305,115.464286 172.834263,120.55692 C163.40346,131.370908 152.479446,139.764323 140.062221,145.737165 C127.644996,151.710007 114.457589,154.696429 100.5,154.696429 L107.478795,142.247768 C120.807664,141.116071 133.146298,136.809338 144.494699,129.327567 C155.843099,121.845796 165.321057,112.19494 172.928571,100.375 C165.698289,89.1209077 156.833333,79.8787202 146.333705,72.6484375 L152.275112,62.0859375 C158.247954,66.109747 163.985026,70.9194568 169.486328,76.515067 C174.98763,82.1106771 179.530134,87.8949033 183.113839,93.8677455 C184.37128,96.0053943 185,98.1744792 185,100.375 L185,100.375 Z" id="Shape"></path>
        </g>
    </g>
</svg>